HIERARCHY
ROOT cup1
{
	OFFSET 0.000000 0.000000 0.000000
	CHANNELS 6 Xposition Yposition Zposition Yrotation Xrotation Zrotation
	End Site
	{
		OFFSET 0.000000 0.000000 0.000000
	}
}
MOTION
Frames: 69
Frame Time: 0.008333334
2.155123 5.319063 3.654911 28.084710 -4.059723 -3.423248 
2.161009 5.310542 3.633201 26.433600 -4.602875 -4.579559 
2.167812 5.302142 3.614979 25.081800 -5.168213 -5.531769 
2.172950 5.294778 3.598440 23.831380 -5.891602 -6.418945 
2.178068 5.287868 3.584612 22.736750 -6.289673 -7.140045 
2.181797 5.281521 3.571198 21.856590 -6.692505 -7.695587 
2.182911 5.276393 3.561421 20.718690 -7.110168 -7.972565 
2.182918 5.271442 3.552376 19.832410 -7.371246 -8.065887 
2.181078 5.266573 3.546336 19.029980 -7.355988 -8.117249 
2.177201 5.261979 3.542256 18.270490 -7.730896 -7.700165 
2.172632 5.257581 3.537586 17.883750 -8.024017 -7.597992 
2.166760 5.252858 3.533150 17.619050 -8.326263 -7.241455 
2.161494 5.247931 3.529785 17.581570 -8.440460 -7.059479 
2.156051 5.242254 3.525317 17.830200 -8.813019 -6.840027 
2.150726 5.236873 3.521964 18.288720 -9.329285 -6.583282 
2.145778 5.231039 3.518542 18.784950 -9.471863 -6.381500 
2.140749 5.225533 3.516087 19.350490 -9.572052 -6.265717 
2.136751 5.221190 3.513496 19.886190 -9.743225 -5.970032 
2.133448 5.216967 3.511916 20.545000 -9.907562 -5.908173 
2.130729 5.212893 3.510434 21.060210 -9.767914 -5.964539 
2.128673 5.209250 3.509527 21.625320 -9.892029 -5.936096 
2.127156 5.206038 3.508889 22.089170 -9.924713 -5.969421 
2.126576 5.203566 3.508405 22.533610 -10.058840 -6.126160 
2.126161 5.199953 3.507983 23.000450 -10.036040 -6.464661 
2.125095 5.197145 3.507620 23.317310 -10.128630 -6.659027 
2.123513 5.193381 3.507850 23.792850 -10.194180 -6.871246 
2.119368 5.189759 3.509692 24.275500 -10.204010 -6.987366 
2.111993 5.185478 3.513204 24.615130 -10.023470 -7.011932 
2.101950 5.180512 3.519574 24.682880 -9.847717 -6.756866 
2.089770 5.175941 3.527154 24.735240 -9.630524 -6.410126 
2.075252 5.170888 3.536593 24.624620 -9.512878 -5.834106 
2.058319 5.166101 3.548748 24.515420 -9.070587 -5.151215 
2.039771 5.160645 3.564534 23.880190 -8.940216 -3.846222 
2.019038 5.154478 3.580028 23.613690 -8.630127 -2.484192 
1.996528 5.147473 3.594738 23.168230 -8.527405 -0.713287 
1.973969 5.138426 3.609266 22.902140 -8.450287 1.209993 
1.948824 5.127869 3.625523 22.336890 -8.221069 3.357650 
1.925648 5.116855 3.642407 21.671550 -8.057190 5.678056 
1.904618 5.107015 3.659023 21.134340 -7.996033 7.640662 
1.886233 5.098731 3.673383 20.527490 -7.667999 9.509144 
1.870977 5.093330 3.685708 19.910980 -7.797211 11.068970 
1.857672 5.091356 3.695567 19.405070 -7.586884 11.389140 
1.850519 5.090175 3.705009 18.952500 -8.229858 12.658240 
1.843373 5.090599 3.713565 18.523710 -8.081940 12.815530 
1.839508 5.093132 3.721963 18.031810 -8.144775 12.954640 
1.837976 5.096297 3.730035 17.797670 -8.097107 13.016390 
1.837054 5.100489 3.739184 17.428180 -7.923340 12.824390 
1.837818 5.105077 3.748553 17.188010 -7.715210 12.701640 
1.838413 5.109292 3.760423 16.931290 -7.294952 12.964320 
1.838349 5.114821 3.773966 16.667760 -6.613159 13.023520 
1.838608 5.120981 3.787342 16.361760 -5.960083 13.299020 
1.837618 5.127287 3.802037 16.033490 -4.759094 13.271180 
1.838210 5.132390 3.817689 15.738230 -4.218140 14.308840 
1.836271 5.139758 3.831637 15.594490 -2.981781 14.167980 
1.835656 5.148134 3.844297 15.354250 -2.473694 14.410760 
1.833673 5.157164 3.854999 15.258380 -2.239655 14.448320 
1.833855 5.166747 3.864674 15.208130 -1.905182 14.462280 
1.832062 5.177078 3.877600 15.428850 -1.119843 13.856080 
1.831336 5.187321 3.892248 15.524490 -0.758270 13.958720 
1.829759 5.198139 3.905862 15.656110 -0.289520 13.895200 
1.827937 5.207792 3.920496 15.918400 0.335895 13.933780 
1.826353 5.216930 3.931636 16.091390 0.971172 13.775640 
1.823932 5.225860 3.942279 16.171410 1.673546 13.419100 
1.821786 5.233273 3.951896 16.113040 2.075208 13.732710 
1.818030 5.241131 3.960796 15.929110 2.584629 13.753290 
1.815223 5.249454 3.971196 15.940090 2.992340 13.895450 
1.810044 5.257584 3.980894 16.056330 3.730874 14.032510 
1.805515 5.266424 3.991021 16.073630 3.898259 14.642800 
1.800629 5.276237 4.002580 16.327130 4.433563 14.900060 
